<svg xmlns="http://www.w3.org/2000/svg" viewBox="0 0 102.86 103.15"><defs><style>.cls-1{fill:#f7ceb3;}.cls-2{fill:#3d3b36;}.cls-3{fill:#9bc23c;}.cls-4{fill:#59c2ea;}.cls-5{fill:#fff;}.cls-6{fill:#2b2661;}.cls-7{fill:#c3996b;}.cls-8{fill:#624026;}.cls-9{fill:#a87c4f;}</style></defs><title>Zasób 2</title><g id="Warstwa_2" data-name="Warstwa 2"><g id="Warstwa_1-2" data-name="Warstwa 1"><path class="cls-1" d="M90.65,23.61c0-.35-.19-.93-.62-.59-.2.15-.1.52-.29.64-.44.3-.48-.38-.51-.68-.11-1.14.39-2.23.25-3.35a6.21,6.21,0,0,0-3.31-4,6.58,6.58,0,0,0-4.4,0,6.55,6.55,0,0,0-4.39,0c-1.32.53-2.32,2.48-2.5,4-.13,1.12.36,2.21.25,3.35,0,.3-.07,1-.51.68-.19-.12-.09-.49-.29-.65-.75-.58-.57,1.07-.49,1.36a5.67,5.67,0,0,0,1.69,3.24c.29.2.92.32,1.09.51a11.65,11.65,0,0,1,1.11,4l-.16,4.58,5.18,4.94,1.65-1.94,2.83-3.15c0-2.63-1-5.86,1-8C89.8,26.92,90.78,26.14,90.65,23.61Z"/><path class="cls-2" d="M73.87,22c.13.59.25,1.2.33,1.86.24,1.87,1.83,3,2.6,4.68A13.51,13.51,0,0,1,78.15,31c1.17-.42.48-.67,1.43.21.59.55,2.63.49,3.35.25.47-.16.65-.7,1.17-.77s1.05.37,1.59.35c-.12,0,1.09-.24.87-.14,1.53-.7,2.77-3.47,3.29-5,.36-1,1-1.83,1.36-2.81a15.73,15.73,0,0,0,.46-3.22c.62-4.72.11-9.37-5.72-10.38-2.67-.46-5.78-.61-8.32.44-2.16.89-3.5,3.19-4.25,5.37S73.47,20.05,73.87,22Z"/><path class="cls-3" d="M87.15,35.19l-3.32.64a8.52,8.52,0,0,1-3.3,0l-3-.62L76.42,38.4l2,7h7.71l2-7Z"/><path class="cls-3" d="M101.42,53.73c-2.32,2.44-6.6,4.1-10.56,5.16a57.69,57.69,0,0,1-6.69,1.38,12,12,0,0,1-3.64,0c-4.1-.64-13.42-2.47-17.31-6.53a5.41,5.41,0,0,1-.93-6c1.09-2.33,2.9-6.17,3.05-6.27s5.44-1.77,8.85-2.84l2.64-.83.16,0H87.64l.17,0,2.63.83c3.41,1.07,8.71,2.74,8.86,2.84s2,3.95,3,6.28A5.39,5.39,0,0,1,101.42,53.73Z"/><path class="cls-4" d="M54,25.55l-3.26.81a6.43,6.43,0,0,1-3.23,0l-3-.79-1,4.1,2,9h7.57l2-9Z"/><path class="cls-4" d="M68,49.26c-2.28,3.13-6.48,5.25-10.37,6.61a49.41,49.41,0,0,1-6.56,1.76,9,9,0,0,1-3.58,0c-4-.81-13.18-3.16-17-8.35a8.57,8.57,0,0,1-.91-7.68c1.07-3,2.85-7.89,3-8s5.35-2.27,8.69-3.64l2.59-1.05.15-.06H54.5l.16.06,2.59,1.05c3.34,1.37,8.54,3.51,8.69,3.64s1.92,5,3,8A8.62,8.62,0,0,1,68,49.26Z"/><path class="cls-1" d="M28.88,25.31c0-.34-.19-.92-.63-.59-.19.15-.1.52-.28.65-.44.3-.48-.38-.51-.68-.11-1.14.38-2.24.25-3.36a6.19,6.19,0,0,0-3.31-4,6.58,6.58,0,0,0-4.4,0,6.55,6.55,0,0,0-4.39,0c-1.32.52-2.32,2.48-2.51,4-.13,1.12.37,2.22.26,3.36,0,.3-.08,1-.52.68-.18-.13-.08-.5-.28-.65-.76-.58-.57,1.07-.5,1.35a5.57,5.57,0,0,0,1.7,3.24c.28.21.92.32,1.09.52a11.54,11.54,0,0,1,1.11,4l-.17,4.58,5.19,5,1.65-1.94,2.82-3.15c0-2.63-1-5.87,1-8C28,28.62,29,27.84,28.88,25.31Z"/><path class="cls-2" d="M12.1,23.66c.12.59.24,1.2.33,1.86.24,1.88,1.82,3,2.6,4.68a13.83,13.83,0,0,1,1.35,2.5c1.17-.42.48-.66,1.43.22.59.54,2.62.48,3.35.24.46-.15.65-.69,1.17-.77s1.05.37,1.59.35c-.12,0,1.09-.24.87-.14,1.53-.69,2.76-3.47,3.29-5,.35-1,1-1.82,1.36-2.81a16.45,16.45,0,0,0,.46-3.21c.61-4.72.11-9.38-5.72-10.39-2.68-.46-5.78-.6-8.33.45-2.16.89-3.5,3.18-4.24,5.36S11.7,21.76,12.1,23.66Z"/><path class="cls-5" d="M25.38,36.9l-3.32.63a8.52,8.52,0,0,1-3.3,0L15.7,36.9l-1,3.2,2,7H24.4l2-7Z"/><path class="cls-3" d="M39.65,55.43C37.33,57.88,33,59.54,29.09,60.6A62.27,62.27,0,0,1,22.4,62a12.75,12.75,0,0,1-3.65,0c-4.09-.64-13.42-2.48-17.31-6.54a5.4,5.4,0,0,1-.92-6c1.09-2.33,2.9-6.17,3-6.27S9,41.39,12.41,40.32l2.65-.82.15-.06H25.87l.16.06,2.64.82c3.4,1.07,8.71,2.74,8.85,2.84s2,4,3,6.28A5.41,5.41,0,0,1,39.65,55.43Z"/><path class="cls-6" d="M72,46.16l-3.32.91a6,6,0,0,1-3.3,0l-3-.88-1.06,4.56,2,10H71l2-10Z"/><path class="cls-6" d="M86.25,72.55C83.93,76,79.64,78.38,75.69,79.9a45.93,45.93,0,0,1-6.69,2,8.64,8.64,0,0,1-3.65,0c-4.09-.9-13.42-3.51-17.3-9.29A10.26,10.26,0,0,1,47.12,64c1.09-3.32,2.9-8.78,3-8.93s5.45-2.52,8.85-4l2.64-1.17.17-.08H72.47l.16.08C73,50,74,50.47,75.27,51c3.4,1.52,8.71,3.9,8.86,4s2,5.62,3,8.94A10.35,10.35,0,0,1,86.25,72.55Z"/><path class="cls-1" d="M35.42,40.34c0-.39-.22-1-.71-.67-.22.17-.11.59-.31.73-.5.34-.55-.42-.58-.76-.12-1.28.43-2.51.28-3.77-.2-1.75-2.24-3.95-3.72-4.55a7.41,7.41,0,0,0-4.94,0,7.38,7.38,0,0,0-4.93,0c-1.48.6-2.6,2.8-2.81,4.55-.15,1.26.41,2.49.28,3.77,0,.34-.08,1.1-.57.76-.21-.14-.1-.56-.32-.73-.85-.65-.65,1.21-.56,1.52.34,1.29.79,2.84,1.9,3.64.32.23,1,.36,1.23.58a13.19,13.19,0,0,1,1.25,4.53l-.19,5.15,5.82,5.54,1.85-2.18,3.18-3.53c0-3-1.16-6.59,1.1-9C34.45,44.06,35.56,43.18,35.42,40.34Z"/><path class="cls-7" d="M16.57,38.49c.14.66.28,1.34.37,2.08.27,2.11,2,3.37,2.92,5.26.41.88,1.33,1.87,1.52,2.81,1.31-.47.53-.75,1.6.24.67.61,2.95.55,3.77.27.52-.17.72-.78,1.31-.86s1.18.42,1.79.39c-.14,0,1.22-.27,1-.16,1.72-.78,3.11-3.89,3.7-5.58.4-1.13,1.12-2,1.52-3.16a18,18,0,0,0,.52-3.6c.69-5.3.12-10.53-6.43-11.66-3-.52-6.49-.68-9.35.5-2.42,1-3.93,3.57-4.76,6S16.12,36.34,16.57,38.49Z"/><path class="cls-5" d="M31.49,53.35l-3.74.71a9.41,9.41,0,0,1-3.7,0l-3.43-.69L19.44,57l2.29,7.85h8.65L32.67,57Z"/><path class="cls-6" d="M47.51,74.16c-2.61,2.75-7.42,4.61-11.86,5.8a66.55,66.55,0,0,1-7.51,1.55,13.74,13.74,0,0,1-4.1,0C19.45,80.78,9,78.72,4.61,74.16a6,6,0,0,1-1-6.73c1.22-2.62,3.25-6.93,3.42-7s6.11-2,9.93-3.2l3-.93.18,0H32l.18,0,3,.93c3.82,1.2,9.78,3.08,9.94,3.2s2.2,4.43,3.42,7A6.08,6.08,0,0,1,47.51,74.16Z"/><path class="cls-1" d="M90.52,52.41c0-.34-.19-.9-.61-.58-.19.15-.1.51-.28.63-.42.29-.47-.36-.49-.66-.11-1.1.37-2.17.24-3.26a6.1,6.1,0,0,0-3.22-3.93,6.38,6.38,0,0,0-4.27,0,6.36,6.36,0,0,0-4.26,0c-1.29.52-2.26,2.42-2.44,3.93-.12,1.09.36,2.16.25,3.26,0,.3-.07,1-.5.66-.18-.12-.08-.48-.27-.63-.74-.56-.56,1-.49,1.32a5.52,5.52,0,0,0,1.65,3.14c.27.2.89.31,1.06.5A11.41,11.41,0,0,1,78,60.71l-.17,4.45,5,4.8,1.6-1.89,2.75-3c0-2.55-1-5.7,1-7.76C89.68,55.62,90.64,54.86,90.52,52.41Z"/><path class="cls-8" d="M74.22,50.81c.12.57.24,1.16.32,1.8.23,1.82,1.77,2.91,2.52,4.54a12.88,12.88,0,0,1,1.32,2.44c1.13-.41.46-.65,1.38.2.58.53,2.55.48,3.26.24.45-.15.63-.67,1.13-.75s1,.37,1.55.34c-.12,0,1-.23.84-.14,1.49-.67,2.68-3.36,3.2-4.82.34-1,1-1.77,1.31-2.73a14.77,14.77,0,0,0,.45-3.12c.6-4.58.11-9.11-5.55-10.08a15.12,15.12,0,0,0-8.09.43c-2.09.86-3.4,3.09-4.12,5.21S73.83,49,74.22,50.81Z"/><path class="cls-4" d="M87.12,63.66l-3.23.62a8.4,8.4,0,0,1-3.2,0l-3-.6-1,3.11,2,6.8h7.49l2-6.8Z"/><path class="cls-4" d="M101,81.66c-2.25,2.37-6.41,4-10.25,5A59.76,59.76,0,0,1,84.22,88a11.36,11.36,0,0,1-3.54,0c-4-.61-13-2.4-16.81-6.34a5.24,5.24,0,0,1-.9-5.82c1.06-2.27,2.82-6,3-6.1S71.22,68,74.52,67l2.57-.8.15-.05H87.59l.16.05,2.56.8c3.31,1,8.46,2.67,8.6,2.76s1.9,3.84,3,6.1A5.26,5.26,0,0,1,101,81.66Z"/><path class="cls-1" d="M57.45,14.17c0-.34-.19-.9-.61-.58-.2.15-.1.51-.28.64-.43.29-.47-.37-.5-.67-.11-1.12.37-2.19.24-3.29a6.13,6.13,0,0,0-3.25-4,6.47,6.47,0,0,0-4.32,0,6.44,6.44,0,0,0-4.31,0c-1.3.52-2.27,2.44-2.46,4-.12,1.1.36,2.17.25,3.29,0,.3-.07,1-.5.67-.18-.13-.09-.49-.28-.64-.74-.57-.56,1.05-.49,1.33a5.51,5.51,0,0,0,1.67,3.18c.28.2.9.32,1.07.51a11.57,11.57,0,0,1,1.09,4l-.17,4.5,5.09,4.85L51.31,30l2.78-3.09c0-2.58-1-5.76,1-7.85C56.61,17.42,57.57,16.66,57.45,14.17Z"/><path class="cls-8" d="M41,12.56c.12.57.24,1.17.32,1.82.24,1.84,1.79,2.94,2.55,4.59a13.09,13.09,0,0,1,1.33,2.46c1.15-.41.47-.65,1.4.21.58.54,2.58.48,3.29.24.46-.15.64-.68,1.15-.76s1,.37,1.56.35c-.11,0,1.07-.24.86-.14,1.5-.68,2.71-3.41,3.23-4.88.35-1,1-1.79,1.33-2.76a15.15,15.15,0,0,0,.45-3.15c.6-4.63.11-9.21-5.62-10.2a15.31,15.31,0,0,0-8.17.44c-2.12.87-3.44,3.13-4.17,5.26S40.58,10.68,41,12.56Z"/><path class="cls-1" d="M58.16,61.83c0-.39-.23-1-.74-.67-.24.17-.13.59-.34.73-.53.33-.58-.43-.62-.76-.13-1.29.46-2.52.3-3.77-.22-1.76-2.38-4-4-4.55a8.27,8.27,0,0,0-5.25,0,8.3,8.3,0,0,0-5.26,0c-1.58.6-2.77,2.79-3,4.55-.16,1.25.43,2.48.3,3.77,0,.33-.09,1.09-.61.76-.22-.14-.11-.56-.34-.73-.91-.65-.69,1.2-.6,1.52.37,1.29.85,2.83,2,3.64.34.23,1.1.36,1.31.58a12.59,12.59,0,0,1,1.33,4.53l-.21,5.14,6.2,5.55,2-2.18,3.37-3.53c0-3-1.23-6.59,1.18-9C57.14,65.54,58.31,64.67,58.16,61.83Z"/><path class="cls-3" d="M54,74.83l-4,.72a10.87,10.87,0,0,1-3.94,0l-3.65-.7-1.26,3.6,2.44,7.86H52.8l2.44-7.86Z"/><path class="cls-3" d="M71,95.65c-2.78,2.75-7.9,4.61-12.63,5.8a76.72,76.72,0,0,1-8,1.55,15.17,15.17,0,0,1-4.36,0c-4.89-.71-16-2.77-20.69-7.33a5.8,5.8,0,0,1-1.11-6.74c1.3-2.61,3.47-6.92,3.64-7s6.52-2,10.58-3.19l3.16-.93a.94.94,0,0,0,.19-.06H54.56l.2.06,3.15.93c4.07,1.2,10.41,3.08,10.59,3.19s2.34,4.43,3.64,7A5.8,5.8,0,0,1,71,95.65Z"/><path class="cls-2" d="M58.18,73.94c.42-1.69.22-3.28.65-4.94a36.59,36.59,0,0,0,.55-5.38c.73-7.92.13-15.73-6.84-17.42-3.2-.77-6.91-1-9.95.75-2.58,1.49-4.19,5.33-5.08,9s.11,7.93.59,11.13c.14,1,.29,2,.39,3.11.29,3.15-.79,8.12.13,10.94,0,0-2.59,5.08,8.85,4.76s8.44-.67,10.77-.67c0,0,2-.78-.21-6.35A23.16,23.16,0,0,1,58.18,73.94Z"/><path class="cls-1" d="M75.48,34.58c0-.35-.19-.93-.63-.59-.19.15-.1.52-.28.64-.44.3-.48-.37-.51-.67-.11-1.14.38-2.24.25-3.36A6.22,6.22,0,0,0,71,26.55a6.55,6.55,0,0,0-4.39,0,6.55,6.55,0,0,0-4.39,0c-1.32.53-2.32,2.49-2.5,4.05-.14,1.12.36,2.22.25,3.36,0,.3-.08,1-.52.67-.18-.12-.08-.49-.28-.64-.76-.59-.57,1.07-.5,1.35a5.75,5.75,0,0,0,1.7,3.24c.28.2.92.32,1.09.52a11.54,11.54,0,0,1,1.11,4l-.17,4.58,5.19,4.94,1.65-1.94,2.82-3.14c0-2.64-1-5.87,1-8C74.62,37.89,75.61,37.11,75.48,34.58Z"/><path class="cls-9" d="M58.7,43c.12,1,.24,2.14.33,3.31.24,3.35,1.83,5.36,2.6,8.35A33.46,33.46,0,0,1,63,59.09c1.17-.76.48-1.19,1.43.38.59,1,2.63.86,3.35.44.46-.28.65-1.24,1.17-1.38s1,.66,1.59.63c-.12,0,1.09-.43.87-.26,1.53-1.24,2.76-6.19,3.29-8.86.36-1.8,1-3.25,1.36-5a50.91,50.91,0,0,0,.46-5.73c.61-8.42.11-16.73-5.72-18.52-2.68-.83-5.78-1.09-8.33.79-2.16,1.59-3.5,5.68-4.24,9.56S58.3,39.56,58.7,43Z"/></g></g></svg>