<svg xmlns="http://www.w3.org/2000/svg" xmlns:xlink="http://www.w3.org/1999/xlink" viewBox="0 0 89.46 110"><defs><style>.cls-1{fill:none;}.cls-2{isolation:isolate;}.cls-3{fill:#59c2ea;}.cls-4{clip-path:url(#clip-path);}.cls-5{fill:#5d2e2b;}.cls-6{fill:#fbc6a8;}.cls-7{fill:#f8af90;}.cls-19,.cls-8{fill:#fff;}.cls-12,.cls-9{fill:#1e1e1e;}.cls-11,.cls-9{opacity:0.29;mix-blend-mode:multiply;}.cls-10{fill:#9bc23c;}.cls-13{fill:#afafb0;}.cls-14{fill:#2c2c2c;}.cls-15{fill:#a87c4f;}.cls-16{fill:#181737;}.cls-17{fill:#1e1f43;}.cls-18{fill:#2b2661;}.cls-19{opacity:0.86;}.cls-20{fill:#202146;}</style><clipPath id="clip-path"><path class="cls-1" d="M64.39,22.55a31.34,31.34,0,0,0-43.88-7.71,31.93,31.93,0,0,0-7.64,44.25A31.33,31.33,0,0,0,56.74,66.8,31.94,31.94,0,0,0,64.39,22.55Z"/></clipPath></defs><title>Zasób 1</title><g class="cls-2"><g id="Warstwa_2" data-name="Warstwa 2"><g id="Warstwa_1-2" data-name="Warstwa 1"><path class="cls-3" d="M64.48,22.08a31.32,31.32,0,0,0-43.87-7.72A31.94,31.94,0,0,0,13,58.61a31.34,31.34,0,0,0,43.88,7.71A31.92,31.92,0,0,0,64.48,22.08Z"/><g class="cls-4"><path class="cls-3" d="M0,37.76A37.45,37.45,0,1,0,37.44,0,37.6,37.6,0,0,0,0,37.76Z"/><path class="cls-5" d="M33.9,36.82s-.36,5.21,10,4.47S52.39,35,52.39,35l.48-14L42.35,13.4l-6.9,10.71Z"/><polygon class="cls-6" points="47.73 41.29 39.39 41.23 39.46 26.75 47.8 26.8 47.73 41.29"/><path class="cls-7" d="M39.43,35.15a6.66,6.66,0,0,0,4,1.67,6.45,6.45,0,0,0,4.29-1.88l0-5-8.34,0Z"/><path class="cls-6" d="M51,23.32C50.67,30,46.61,35,42.58,35c-3.35,0-7.08-3.85-8.3-8.28a18,18,0,0,1-.4-2A19.73,19.73,0,0,1,33.65,21c.36-6.71,3.61-10.52,8.91-10.26S51.4,16.6,51,23.32Z"/><path class="cls-6" d="M57.11,52.64,54.17,88.48a9.69,9.69,0,0,1-19.33.24L31,53A13.3,13.3,0,0,1,42.64,38.24,13.17,13.17,0,0,1,57.08,50.08,14.62,14.62,0,0,1,57.11,52.64Z"/><path class="cls-8" d="M36.53,44.06s5.92,12.24,13.13,0,0,35.59,0,35.59-4.93,2.95-14.14,0S36.53,44.06,36.53,44.06Z"/><path class="cls-9" d="M40.74,60.17a178.72,178.72,0,0,1-1.35-22c-5.7,1.94-9,7.66-8.36,13.94l4.42,20A9.83,9.83,0,0,0,41,79.91C41.63,70.55,41.81,70.07,40.74,60.17Z"/><path class="cls-9" d="M55.32,72.86a102.41,102.41,0,0,1,.23-10.27l.75-7a56.71,56.71,0,0,0,.75-5.79c-.71-5.67-4.12-10.43-9.31-11.67a233.8,233.8,0,0,1-1.62,23.59C45,72,46.65,95.8,47.27,104.24c4-.92,10.51-1.18,10.88-5.6L55.33,74.27C55.33,73.8,55.32,73.33,55.32,72.86Z"/><path class="cls-10" d="M39.39,38.16a134.2,134.2,0,0,0,.69,23.59c1.51,14-.92,40.71-.92,40.71s-7.31,0-11.51-5.79c0,0,4.05-10.08,2.7-24.55s-3.67-11.58.45-21.77l-1.35,5S27.36,42.59,31.1,41.14,39.39,38.16,39.39,38.16Z"/><path class="cls-10" d="M47.74,38.16a151.93,151.93,0,0,1-.89,23.59c-1.52,14,.91,40.71.91,40.71s7.31,0,11.51-5.79c0,0-3.23-9.29-3.22-23.81a102.41,102.41,0,0,1,.23-10.27l.75-7s2.54-13-1.21-14.48S47.74,38.16,47.74,38.16Z"/><path class="cls-6" d="M47.75,78.51a55.76,55.76,0,0,0-6.59,1.84c-2.6,1-6.58-.58-7.23-2.87S42.09,76,42.09,76l3.65-.5Z"/><path class="cls-10" d="M35,45.1,28.36,69.42l-.27,1-.78.57-8.65,6.23a2.68,2.68,0,0,1-3.76-.63,2.73,2.73,0,0,1,.62-3.79l8.65-6.24-1.05,1.57,5.27-24.65A3.38,3.38,0,1,1,35,44.92S35,45,35,45.1Z"/><g class="cls-11"><path class="cls-12" d="M54.72,41.87a3.4,3.4,0,0,0-2.36,4.18l4.09,15L57,55.62s2-10.38-.21-13.64A3.34,3.34,0,0,0,54.72,41.87Z"/><path class="cls-12" d="M46.47,80.93l9.7-3.25c-.07-1.53-.12-3.14-.12-4.82,0-.9,0-1.69,0-2.38l-9.71,3.93C46.36,76.57,46.41,78.77,46.47,80.93Z"/></g><path class="cls-7" d="M42.16,80c2.51-.84,5.59-1.49,5.59-1.49l-2-3-3.65.5s-.58,0-1.43-.09Z"/><path class="cls-10" d="M43.27,81.17l21-7a3.52,3.52,0,0,0,2.24-4.32l0-.07L58.85,43.36a3.38,3.38,0,0,0-6.49,1.86l6.35,23.35L41.26,75.64Z"/><polygon class="cls-13" points="36.86 86.23 17.99 86.23 11.24 57.96 30.11 57.96 36.86 86.23"/><polygon class="cls-14" points="36.41 86.68 17.54 86.68 10.79 58.41 29.66 58.41 36.41 86.68"/><polygon class="cls-12" points="25.74 62.2 16.3 62.2 15.77 60.39 25.21 60.39 25.74 62.2"/><polygon class="cls-13" points="23.91 61.41 17.94 61.41 17.77 60.61 23.74 60.61 23.91 61.41"/><path class="cls-6" d="M14.45,73.75a7.92,7.92,0,0,0,3.32,1.37c1.57.11,1.69,3.5,0,4.49s-2.81,1.08-3.32,0S13,72.89,14.45,73.75Z"/><path class="cls-7" d="M47.4,12.78A7.81,7.81,0,0,0,44.3,11c-5-.6-7.66,1.33-9.12,3.81A14.68,14.68,0,0,0,33.65,21a19.73,19.73,0,0,0,.23,3.73,18,18,0,0,0,.4,2A13.6,13.6,0,0,0,37.1,32a14.93,14.93,0,0,1,3.21-6.9,21.18,21.18,0,0,0,4.78-9A9.05,9.05,0,0,0,47.4,12.78Z"/><path class="cls-15" d="M43.83,15.42a29.72,29.72,0,0,1-5,11.45c-3.82,5-4.2,15.2-4,17.8a45.73,45.73,0,0,0,1.35,6.78s-4-3-5.13-10.8.35-13.43.59-17.89,1.24-17.42,14.39-13C46.06,9.73,47.48,10.8,43.83,15.42Z"/><path class="cls-15" d="M43.19,15.27s2.2,9.75,6.31,9.92,2.13,4.06,1.66,11a104.06,104.06,0,0,1-2.57,15.28s5.14-5.4,5.37-17.26-1.65-23.67-8.53-24S43.19,15.27,43.19,15.27Z"/><path class="cls-6" d="M52.38,24.86c-.1,1.79-.92,3.22-1.62,3.18s-1.21-1.52-1.11-3.32.71-2.36,1.41-2.33S52.48,23.06,52.38,24.86Z"/></g><path class="cls-16" d="M86,108.08c-2.67,1.89-5.26,2.81-6.72.72L65,88.32c-1.46-2.09.28-4.24,3-6.13s5.25-2.81,6.71-.71L88.93,102C90.39,104,88.66,106.19,86,108.08Z"/><path class="cls-17" d="M69,81.49c-2.07,1.7-3.2,3.55-1.94,5.37l14.28,20.47c1.27,1.81,3.38,1.37,5.66,0,2.06-1.69,3.2-3.55,1.93-5.36L74.65,81.48C73.39,79.66,71.27,80.11,69,81.49Z"/><path class="cls-18" d="M69.18,84c-1.6,1.13-2.84,2.12-3.71.87l-11-15.78c-.87-1.25-.29-3.18,1.3-4.31s3.6-1,4.47.22l11,15.78C72.11,82,70.77,82.85,69.18,84Z"/><path class="cls-19" d="M58.06,59.16a31.32,31.32,0,0,1-43.87-7.71A31.82,31.82,0,0,1,8.5,31.59a31.94,31.94,0,0,0,4.37,27.5A31.33,31.33,0,0,0,56.74,66.8,31.75,31.75,0,0,0,70.07,42.41,31.61,31.61,0,0,1,58.06,59.16Z"/><path class="cls-20" d="M54.92,69.71l5,7.12a3.57,3.57,0,0,0,1-.49l3.89-2.76a3.51,3.51,0,0,0,.86-.86l-5-7.1a3.48,3.48,0,0,0-1.54-1.24l-4.86,3.45A3.55,3.55,0,0,0,54.92,69.71Z"/><path class="cls-18" d="M10,61.13A34.89,34.89,0,0,0,50.54,74a4.58,4.58,0,0,0,.74.13l5.62.39a3.51,3.51,0,0,0,2.29-.64l3.9-2.76a3.64,3.64,0,0,0,1.34-1.86l1.8-5.78a3.13,3.13,0,0,0,.16-1.17,35.62,35.62,0,0,0,.88-41.83A35,35,0,0,0,4.13,34.76,35.33,35.33,0,0,0,10,61.13ZM22.54,17.75a27.84,27.84,0,0,1,39,6.85,28.39,28.39,0,0,1-6.78,39.29h0a27.85,27.85,0,0,1-39-6.85A28.39,28.39,0,0,1,22.54,17.75Z"/></g></g></g></svg>