<svg xmlns="http://www.w3.org/2000/svg" viewBox="0 0 86.52 104.33"><defs><style>.cls-1{fill:#c6c5c5;}.cls-2{fill:#ececec;}.cls-3{fill:#9bc23c;}.cls-4{fill:#2b2661;}.cls-5{fill:#59c2ea;}.cls-6{fill:#1b75bb;}.cls-7{fill:#6d6e70;}.cls-8{fill:#575756;}.cls-9{fill:#fdd1a0;}.cls-10{fill:#035b6b;}.cls-11{fill:#3c3c3b;}</style></defs><title>Zasób 1</title><g id="Warstwa_2" data-name="Warstwa 2"><g id="Warstwa_1-2" data-name="Warstwa 1"><rect class="cls-1" x="14.96" y="7.92" width="66.41" height="86.74" transform="translate(-6.02 6.41) rotate(-7.16)"/><path class="cls-2" d="M83,88.28a.86.86,0,0,0,.68-1L59.72.56A.87.87,0,0,0,58.62,0L.7,16.05a.87.87,0,0,0-.67,1l24,86.7a.87.87,0,0,0,1.1.52Z"/><path class="cls-3" d="M39,35.3l6.25-11L41.83,12.07A12.85,12.85,0,0,0,39,35.3Z"/><path class="cls-4" d="M42.65,11.84l3.31,12,12-3.31a12.85,12.85,0,0,0-15.28-8.66Z"/><path class="cls-5" d="M46.76,24.47,54,28.57l3,1.73a12.72,12.72,0,0,0,1.11-9Z"/><path class="cls-6" d="M45.82,24.91,39.7,35.72A12.86,12.86,0,0,0,56.63,31Z"/><rect class="cls-6" x="59.64" y="37.66" width="8.01" height="27.04" transform="translate(-11.33 18.8) rotate(-15.45)"/><rect class="cls-6" x="50.3" y="45.17" width="8.01" height="22.2" transform="translate(-13.03 16.5) rotate(-15.45)"/><rect class="cls-6" x="41.49" y="56.63" width="8.01" height="13.34" transform="translate(-15.22 14.41) rotate(-15.45)"/><rect class="cls-7" x="30.86" y="54.59" width="8.01" height="18.23" transform="translate(-15.71 11.59) rotate(-15.45)"/><rect class="cls-7" x="20.16" y="52.12" width="8.01" height="23.55" transform="translate(-16.15 8.75) rotate(-15.46)"/><rect class="cls-8" x="24.16" y="74.57" width="49.45" height="1.9" transform="translate(-18.36 15.76) rotate(-15.46)"/><rect class="cls-8" x="25.31" y="78.74" width="49.45" height="1.9" transform="translate(-19.42 16.21) rotate(-15.45)"/><rect class="cls-8" x="26.46" y="82.92" width="49.45" height="1.9" transform="translate(-20.49 16.67) rotate(-15.45)"/><rect class="cls-8" x="27.61" y="87.08" width="49.45" height="1.9" transform="translate(-21.56 17.13) rotate(-15.45)"/><path class="cls-3" d="M13.27,29.11l8.05,1.34L28,25.71a8.28,8.28,0,0,0-14.7,3.4Z"/><path class="cls-4" d="M28.28,26.15l-6.51,4.66,4.65,6.51a8.28,8.28,0,0,0,1.86-11.17Z"/><path class="cls-5" d="M21.55,31.44l-.88,5.29L20.3,39A8.21,8.21,0,0,0,26,37.64Z"/><path class="cls-6" d="M21.07,31l-7.89-1.32a8.27,8.27,0,0,0,6.58,9.21Z"/><path class="cls-9" d="M27.38,48.05l-1.24,9.66a6.1,6.1,0,0,1-5.26-2.08l5.67-7.91Z"/><path class="cls-4" d="M26,58,9.68,99.45l-1.76-.69,16.36-41.5C24.94,55.58,26.7,56.27,26,58Z"/><path class="cls-10" d="M24.28,57.26,7.92,98.76l-1.76-.69,16.36-41.5C23.17,54.93,24.93,55.62,24.28,57.26Z"/><path class="cls-4" d="M22.52,56.57,6.16,98.07l-1.76-.7,16.36-41.5C21.38,54.31,23.14,55,22.52,56.57Z"/><polygon class="cls-11" points="28.43 45.23 27.33 48.03 26.55 47.73 27.66 44.93 28.43 45.23"/></g></g></svg>