<svg xmlns="http://www.w3.org/2000/svg" xmlns:xlink="http://www.w3.org/1999/xlink" viewBox="0 0 109.48 104.52"><defs><style>.cls-1{fill:url(#linear-gradient);}.cls-2{isolation:isolate;}.cls-3{fill:#151639;}.cls-4{fill:#2b2661;}.cls-5{fill:#0c2025;opacity:0.5;}.cls-16,.cls-5{mix-blend-mode:multiply;}.cls-6{mask:url(#mask);}.cls-7{fill:#18adc6;opacity:0.7;}.cls-8{fill:#9bc23c;}.cls-9{fill:#334547;}.cls-10{fill:url(#linear-gradient-2);}.cls-11{fill:#80a23e;}.cls-12{fill:#577836;}.cls-13{fill:#368ca0;}.cls-14{fill:#cbc9ca;}.cls-15{fill:#b4bfc8;}.cls-16{fill:#8fa2ad;}.cls-16,.cls-18{opacity:0.4;}.cls-17{fill:#e6e6e6;}.cls-18{fill:#929497;mix-blend-mode:darken;}.cls-19{fill:#fff;}.cls-20{fill:#59c2ea;}.cls-21{fill:#bd2626;}</style><linearGradient id="linear-gradient" x1="94.53" y1="48.01" x2="75.12" y2="48.01" gradientUnits="userSpaceOnUse"><stop offset="0" stop-color="#fff"/><stop offset="0.11" stop-color="#dadada"/><stop offset="0.36" stop-color="#8d8d8d"/><stop offset="0.58" stop-color="#515151"/><stop offset="0.77" stop-color="#252525"/><stop offset="0.91" stop-color="#0a0a0a"/><stop offset="1"/></linearGradient><mask id="mask" x="51.84" y="20.38" width="59.51" height="55.26" maskUnits="userSpaceOnUse"><rect class="cls-1" x="51.84" y="20.38" width="59.51" height="55.26"/></mask><linearGradient id="linear-gradient-2" x1="23.88" y1="52.25" x2="25.7" y2="52.25" gradientUnits="userSpaceOnUse"><stop offset="0" stop-color="#fbed21"/><stop offset="1" stop-color="#f79420"/></linearGradient></defs><title>Zasób 2</title><g class="cls-2"><g id="Warstwa_2" data-name="Warstwa 2"><g id="Warstwa_1-2" data-name="Warstwa 1"><path class="cls-3" d="M87.11,50.17c.08,2.25-17,14.39-34.18,14.54C35.44,64.85,17.79,53,17.79,50.18V60.73c0,2.8,11.68,12.87,35.14,12.87,22.3,0,34.26-10.62,34.18-12.87Z"/><polygon class="cls-4" points="87.11 50.24 87.11 50.23 87.11 50.25 87.11 50.24"/><path class="cls-4" d="M87.09,49.84c-.57-6.88-15.86-12.4-34.64-12.4S18.37,43,17.81,49.85c0,.13,0,.26,0,.39,0,7,15.27,14.37,34.2,14.46h1.19C72,64.56,87.1,57.22,87.11,50.25v0A2.55,2.55,0,0,0,87.09,49.84Z"/><path class="cls-4" d="M85.3,20.86,52.45,38.8,19.6,20.86l.06,28.83c0,2.65,10.24,12.48,33.24,12.48,24.74,0,32.41-10.34,32.34-12.48Z"/><path class="cls-5" d="M19.64,43.48c0-3.63,5.56-3.87,13.16-.46C45.48,48.71,60,62.15,70.49,60c9.85-2.83,13.94-7.64,14.64-9.69.05-.44.09-.82.11-1.09l0-13.19c-.48,0-13.38-.41-26.16-.83L52.45,38.8,44.9,34.68c-6.62-.24-11.35-.45-11.27-.53.28-.28-13.21-2.5-13.21-2.5l-.79.47Z"/><g class="cls-6"><polygon class="cls-7" points="85.29 46.01 85.29 35.41 74.75 39.97 75.31 58.82 84.67 50.81 85.29 46.01"/></g><polygon class="cls-3" points="88.17 20.47 52.43 4.4 16.98 20.47 0 23.8 0 27.3 0 27.3 52.43 50.58 105.33 27.3 105.33 27.3 105.33 23.8 88.17 20.47"/><polygon class="cls-4" points="52.43 0 0 23.8 52.43 47.08 105.33 23.8 52.43 0"/><path class="cls-5" d="M57.27,21.11c0,1.23-2.09,2.23-4.66,2.23S48,22.34,48,21.11s2.09-2.23,4.66-2.23S57.27,19.88,57.27,21.11Z"/><path class="cls-8" d="M24.35,46.24c-.1-2-.4-10.37.91-12.68C28.6,27.66,50.12,21,52.32,20.31l.81.62c-4,1.22-23.52,7.34-26.85,13.17-1.31,2.3-.9,10.19-.78,12Z"/><path class="cls-8" d="M49.28,22.15l1.39-.4s-.64-.67-.74-.72-.59.2-.59.2l-.27.11C49.31,21.3,49.59,22,49.28,22.15Z"/><path class="cls-9" d="M57,20c0,1.15-1.94,2.08-4.34,2.08s-4.33-.93-4.33-2.08,1.94-2.07,4.33-2.07S57,18.84,57,20Z"/><rect class="cls-10" x="23.88" y="49.33" width="1.81" height="5.84"/><path class="cls-11" d="M31.16,65.69a99.23,99.23,0,0,0-1.87-12.23c-.92-4.18-1.95-8-4.49-8-5.81,0-6.48,18.63-6.37,20.22a3.25,3.25,0,0,0,1.89,2.64,5.69,5.69,0,0,0,1.35.48,13.33,13.33,0,0,0,3.13.33,9.49,9.49,0,0,0,1.64-.09c.65-.11,1-.14,1.31-.22C30.39,68.26,31.16,66.74,31.16,65.69Z"/><path class="cls-8" d="M25.4,45.54a2.51,2.51,0,0,0-.55-.07c-.29.17-.66.41-1.15.74C19.86,48.76,18.83,62,18.8,66.92a3.82,3.82,0,0,0,1.52,1.41,5.69,5.69,0,0,0,1.35.48,11.28,11.28,0,0,0,1.2.22C23,60.63,24,47.63,24.62,46.3,24.62,46.3,25.08,45.89,25.4,45.54Z"/><path class="cls-12" d="M30,67.85a2.76,2.76,0,0,0,1.19-2.16c0-1.38-.56-20.22-6.36-20.22a3,3,0,0,0-2.13,1c-.33.48,2.55.66,3.43,2,2.1,3.14,3.88,9,3.88,19.28C30,67.76,30,67.8,30,67.85Z"/><path class="cls-13" d="M77.6,67.55c4.07,5.48,4.84,11.79,1.72,14.1s-8.93-.25-13-5.73S61.49,64.14,64.6,61.83,73.54,62.08,77.6,67.55Z"/><path class="cls-14" d="M94,37.46v0c2.77-2.3,8.08-.55,11.9,3.92,3.59,4.21,4.6,9.34,2.46,11.91L54.3,102.5,39.84,86.56Z"/><path class="cls-15" d="M42.24,98.73c-1.7-2-3.28-4-3.77-6-.18-.79,1.62-1.72,1.27-2.38a3.57,3.57,0,0,1,.52-4.05C43,84,48.35,85.71,52.2,90.21s4.73,10.05,2,12.4S46.08,103.22,42.24,98.73Z"/><path class="cls-16" d="M78.56,56.43v0c1.86-1.55,5.44-.37,8,2.64,2.43,2.84,3.11,6.3,1.67,8l0,.06L51.81,100.27s1.9-3.39-1.72-7.73c-3.29-3.94-6.81-2.76-6.81-2.76Z"/><path class="cls-16" d="M49.29,92c-.54-.63-3.81,3-4.27,2.44-1.76-2.35-2.44-3.37-1-4.63,1.86-1.58,3.45-.29,6,2.75s3.49,6.22,1.64,7.8c-.8.68.75-.64.71-2.12C52.38,96.26,50.76,93.7,49.29,92Z"/><path class="cls-17" d="M52.2,90.21C48.35,85.71,43,84,40.26,86.32a3.51,3.51,0,0,0-.34.33l-.08-.09L94,37.46v0c2.77-2.3,8.08-.55,11.9,3.92,3.59,4.21,4.6,9.34,2.46,11.91l-53.65,49.5-.41-.32C56.9,100.09,56,94.64,52.2,90.21Z"/><path class="cls-18" d="M108.36,53.32a5.29,5.29,0,0,0,1.11-3.18h0L87.94,70.56l-8.06,7L56.78,98.66l-2.29,4,.22.17Z"/><path class="cls-19" d="M52.93,104.19a5.53,5.53,0,0,0,3.43-3.35c1.09-2.84.18-6.63-2.43-10.14C49.11,84.22,44.24,83.52,41.3,85a3.88,3.88,0,0,0-2.08,2.39C38.47,90,40.37,93.27,41.39,95l.15.25c1.31,2.28,6.54,6.77,9.48,5.58A3.11,3.11,0,0,0,52.92,99c.67-1.82-.51-4.07-1.14-5.28l-.1-.18c-.86-1.66-5.09-5.84-7.49-4.66a2.33,2.33,0,0,0-1.35,1.73c-.27,1.52.87,3.36,1.7,4.23a.66.66,0,0,0,1-.92,4.49,4.49,0,0,1-1.35-3.08,1,1,0,0,1,.62-.77c1.27-.63,4.95,2.57,5.74,4.08l.09.19c.5,1,1.54,2.93,1.08,4.2a1.84,1.84,0,0,1-1.16,1.06c-1.84.76-6.54-2.76-7.83-5l-.15-.27c-.92-1.59-2.64-4.57-2-6.58a2.57,2.57,0,0,1,1.4-1.58c2.35-1.21,6.63-.55,11,5.28,2.33,3.14,3.18,6.46,2.25,8.88a4.33,4.33,0,0,1-3.29,2.75c-3.45.69-10.12-3.08-12.73-10.59a.66.66,0,1,0-1.25.44c2.88,8.29,10.24,12.26,14.24,11.45A7.39,7.39,0,0,0,52.93,104.19Z"/><path class="cls-13" d="M78,66.55C73.61,61.41,67.52,59.41,64.34,62l-.48.51-.43.89.14.41c.84-.7.88.35,1.82-.35,2.42-1.81,8,.61,11.25,4.38,3.73,4.37,5,9.5,2.34,12.58-.24.28.45.82.22,1.1,0,0,.2,0,.25,0a15.73,15.73,0,0,0,1.38-1.33C83.28,77.27,82.12,71.38,78,66.55Z"/><path class="cls-20" d="M83.9,61.28c-4.39-5.13-10.48-7.14-13.65-4.51l0,0L64.45,62c3.22-2.41,9.21-.4,13.51,4.64,4.13,4.83,5.29,10.72,2.84,13.67L86.73,75C89.19,72,88,66.11,83.9,61.28Z"/><polygon class="cls-21" points="79.24 53.12 80.09 55.58 80.32 56.5 79.47 54.05 79.24 53.12"/><polygon class="cls-13" points="63.62 60.11 64.46 62.57 63.9 61.77 63.05 59.31 63.62 60.11"/><polygon class="cls-13" points="81.06 53.65 81.91 56.11 81.81 57.12 80.96 54.66 81.06 53.65"/><polygon class="cls-13" points="63.05 61.51 63.9 63.97 63.04 63.32 62.2 60.87 63.05 61.51"/><polygon class="cls-13" points="82.52 54.47 83.37 56.93 82.95 57.98 82.1 55.52 82.52 54.47"/><polygon class="cls-13" points="62.93 62.85 63.77 65.31 62.66 64.85 61.81 62.4 62.93 62.85"/><polygon class="cls-13" points="83.58 55.55 84.43 58.01 83.69 59.05 82.84 56.59 83.58 55.55"/><polygon class="cls-13" points="63.24 64.09 64.09 66.55 62.76 66.3 61.91 63.84 63.24 64.09"/><polygon class="cls-13" points="84.17 56.84 85.02 59.3 84.01 60.28 83.16 57.83 84.17 56.84"/><polygon class="cls-13" points="63.99 65.16 64.83 67.62 63.36 67.58 62.51 65.13 63.99 65.16"/><polygon class="cls-13" points="84.27 58.28 85.12 60.74 83.88 61.63 83.03 59.17 84.27 58.28"/><polygon class="cls-13" points="65.13 66.02 65.97 68.48 64.41 68.67 63.56 66.21 65.13 66.02"/><polygon class="cls-13" points="83.89 59.82 84.74 62.27 83.32 63.02 82.47 60.57 83.89 59.82"/><polygon class="cls-13" points="66.61 66.63 67.46 69.09 65.88 69.48 65.03 67.03 66.61 66.63"/><polygon class="cls-13" points="83.03 61.37 83.88 63.83 82.34 64.41 81.5 61.95 83.03 61.37"/><polygon class="cls-13" points="68.38 66.97 69.23 69.43 67.69 70.02 66.84 67.56 68.38 66.97"/><polygon class="cls-13" points="81.5 61.95 82.34 64.41 82.58 65.33 81.73 62.88 81.5 61.95"/><polygon class="cls-13" points="81.73 62.88 82.58 65.33 81 65.73 80.15 63.27 81.73 62.88"/><polygon class="cls-13" points="70.35 67.02 71.2 69.48 69.78 70.23 68.93 67.77 70.35 67.02"/><polygon class="cls-13" points="68.93 67.77 69.78 70.23 69.23 69.43 68.38 66.97 68.93 67.77"/><polygon class="cls-13" points="80.06 64.28 80.91 66.73 79.34 66.91 78.5 64.46 80.06 64.28"/><polygon class="cls-13" points="80.15 63.27 81 65.73 80.91 66.73 80.06 64.28 80.15 63.27"/><polygon class="cls-13" points="72.44 66.77 73.29 69.23 72.05 70.12 71.2 67.67 72.44 66.77"/><polygon class="cls-13" points="71.2 67.67 72.05 70.12 71.2 69.48 70.35 67.02 71.2 67.67"/><polygon class="cls-13" points="78.08 65.5 78.92 67.96 77.45 67.92 76.6 65.46 78.08 65.5"/><polygon class="cls-13" points="78.5 64.46 79.34 66.91 78.92 67.96 78.08 65.5 78.5 64.46"/><polygon class="cls-13" points="74.55 66.25 75.4 68.71 74.4 69.69 73.55 67.24 74.55 66.25"/><polygon class="cls-13" points="73.55 67.24 74.4 69.69 73.29 69.23 72.44 66.77 73.55 67.24"/><polygon class="cls-13" points="75.88 66.5 76.72 68.96 75.4 68.71 74.55 66.25 75.88 66.5"/><path class="cls-20" d="M81.49,62l.24.93-1.58.39-.09,1-1.56.18-.42,1-1.48,0-.73,1-1.32-.25-1,1-1.11-.46-1.24.89L70.35,67l-1.42.75-.55-.8-1.54.59-.23-.93L65,67l.09-1-1.56.18.43-1-1.48,0,.73-1-1.33-.25,1-1-1.11-.45,1.24-.89-.85-.65,1.41-.75-.56-.8,1.54-.59-.24-.92,1.58-.39.09-1,1.57-.18.42-1,1.47,0,.73-1,1.32.25,1-1,1.11.46L74.88,53l.85.65,1.42-.76.56.81,1.53-.59.54.85,1.28-.32-.1,1,1.56-.19-.42,1.05,1.48,0-.74,1,1.33.25-1,1,1.11.46L83,59.17l.86.64-1.42.75.56.81Z"/><polygon class="cls-13" points="76.6 65.46 77.45 67.92 76.72 68.96 75.88 66.5 76.6 65.46"/></g></g></g></svg>