<svg xmlns="http://www.w3.org/2000/svg" viewBox="0 0 118.98 103.04"><defs><style>.cls-1{fill:#ece3e5;}.cls-2{fill:#c8bbc0;}.cls-3{fill:#59c2ea;}.cls-4{fill:#9bc23c;}.cls-5{fill:#2b2661;}</style></defs><title>Zasób 1</title><g id="Warstwa_2" data-name="Warstwa 2"><g id="Warstwa_1-2" data-name="Warstwa 1"><rect class="cls-1" x="21.96" y="2.65" width="94.27" height="29.15" transform="translate(138.19 34.45) rotate(180)"/><path class="cls-2" d="M109.64,15.64c0-2.79-1.75-5-3.91-5H22V2.65h87.68c3.64,0,6.59,3.8,6.59,8.48V23.32c0,4.68-3,8.48-6.59,8.48h0Z"/><path class="cls-3" d="M22.17,34.45h88.91c4,0,7.21-4.16,7.21-9.27V9.28c0-5.12-3.23-9.28-7.21-9.28H22.17a2.41,2.41,0,0,0-2.06,2.65A2.41,2.41,0,0,0,22.17,5.3h88.91c1.71,0,3.09,1.78,3.09,4v15.9c0,2.19-1.38,4-3.09,4H22.17a2.41,2.41,0,0,0-2.06,2.65A2.41,2.41,0,0,0,22.17,34.45Z"/><rect class="cls-1" x="2.06" y="37.08" width="94.27" height="29.15"/><path class="cls-2" d="M8.65,50.07c0-2.78,1.75-5,3.91-5H96.32v-8H8.65c-3.64,0-6.59,3.8-6.59,8.48V57.75c0,4.69,2.95,8.48,6.59,8.48h0Z"/><path class="cls-4" d="M96.12,68.89H7.2c-4,0-7.2-4.17-7.2-9.28V43.71c0-5.12,3.23-9.28,7.2-9.28H96.12a2.42,2.42,0,0,1,2.06,2.65,2.41,2.41,0,0,1-2.06,2.65H7.2c-1.7,0-3.08,1.79-3.08,4v15.9c0,2.19,1.38,4,3.08,4H96.12a2.74,2.74,0,0,1,0,5.31Z"/><rect class="cls-1" x="22.65" y="71.24" width="94.27" height="29.15" transform="translate(139.57 171.63) rotate(180)"/><path class="cls-2" d="M110.33,84.22c0-2.78-1.75-5-3.91-5H22.65v-8h87.68c3.64,0,6.59,3.8,6.59,8.48V91.91c0,4.68-3,8.48-6.59,8.48h0Z"/><path class="cls-5" d="M22.86,103h88.91c4,0,7.21-4.16,7.21-9.28V77.86c0-5.11-3.23-9.27-7.21-9.27H22.86a2.73,2.73,0,0,0,0,5.3h88.91c1.71,0,3.09,1.78,3.09,4v15.9c0,2.2-1.38,4-3.09,4H22.86a2.73,2.73,0,0,0,0,5.3Z"/></g></g></svg>